Coordinates
version=1
nRows=19
nColumns=36
inDegrees=yes

Units are S.I. units (second, meters, Newtons, ...)
If the header above contains a line with 'inDegrees', this indicates whether rotational values are in degrees (yes) or radians (no).

endheader
time	pelvis_tilt	pelvis_list	pelvis_rotation	pelvis_tx	pelvis_ty	pelvis_tz	hip_flexion_r	hip_adduction_r	hip_rotation_r	knee_angle_r	knee_angle_r_beta	ankle_angle_r	subtalar_angle_r	mtp_angle_r	hip_flexion_l	hip_adduction_l	hip_rotation_l	knee_angle_l	knee_angle_l_beta	ankle_angle_l	subtalar_angle_l	mtp_angle_l	lumbar_extension	lumbar_bending	lumbar_rotation	arm_flex_r	arm_add_r	arm_rot_r	elbow_flex_r	pro_sup_r	arm_flex_l	arm_add_l	arm_rot_l	elbow_flex_l	pro_sup_l
      0.79000000	      0.90901380	      1.33718279	     -0.18204185	      0.78162778	      1.13845589	     -0.20150826	      0.57695494	      0.15166200	     -0.70425335	     49.54392009	      0.86470453	    -13.65482620	     -6.83509762	     -6.61996704	     17.90543367	      4.57120622	     -2.29682487	     18.03843821	      0.31483014	     -0.23055524	     -6.27740341	     -6.61996704	    -10.50457908	     -2.93781813	     -0.97738348	    -11.85706246	     -5.47949379	    -12.04839629	     43.33331947	    110.77343648	    -11.43530268	     -2.84690354	    -18.12448775	     45.22965499	    108.73403185
      0.80000000	      0.75589328	      1.44969200	     -0.63193185	      0.79190992	      1.13981152	     -0.20151758	      2.43710183	     -0.00033977	      0.10525307	     52.26451896	      0.91218794	    -15.46415463	     -7.83406775	     -6.63958695	     17.39100363	      4.62746148	     -2.68817221	     17.89605352	      0.31234506	      0.08907929	     -6.36151584	     -6.63958695	    -10.34554600	     -3.19382873	     -0.69717664	    -12.00506801	     -5.45939941	    -11.87000961	     42.93546579	    110.80551319	    -11.40311019	     -2.89275998	    -18.07109540	     45.45807697	    108.88733025
      0.81000000	      0.92257628	      1.57936081	     -1.03020070	      0.80226399	      1.14161981	     -0.20167974	      3.85535382	     -0.18027666	      0.82585267	     54.68889751	      0.95450133	    -16.24688440	     -8.03291309	     -6.64615268	     16.41625197	      4.78073332	     -2.76206964	     17.56378194	      0.30654582	      0.65947747	     -6.50717783	     -6.64615268	    -10.56309839	     -3.43527722	     -0.53859457	    -12.11615131	     -5.45369973	    -11.72347551	     42.71069851	    110.82214228	    -11.33373484	     -2.94537966	    -17.99588989	     45.65931260	    108.95299825
      0.82000000	      0.97433916	      1.66734309	     -1.34272548	      0.81249293	      1.14326978	     -0.20191662	      5.37622369	     -0.30604380	      1.38245626	     56.93017669	      0.99361903	    -16.53793700	     -8.57651830	     -6.65343992	     15.58801661	      4.90616408	     -2.85389184	     17.23309145	      0.30077419	      1.05930666	     -6.62162794	     -6.65343992	    -10.63718279	     -3.60329827	     -0.43385740	    -12.22520901	     -5.49306084	    -11.48412366	     42.47621145	    110.85197850	    -11.29984392	     -3.01696820	    -17.84426074	     45.92226228	    109.03572058
      0.83000000	      1.02466309	      1.68368226	     -1.57959915	      0.82263830	      1.14494909	     -0.20220337	      6.83736076	     -0.33163194	      1.84576679	     58.90597449	      1.02810320	    -16.29501407	     -9.28240985	     -6.66018931	     14.77243250	      4.98359965	     -2.79490082	     16.91944747	      0.29530007	      1.42087771	     -6.73944530	     -6.66018931	    -10.71862626	     -3.66725394	     -0.46244083	    -12.30766748	     -5.54397703	    -11.19861441	     42.28508581	    110.88855543	    -11.30577504	     -3.11222952	    -17.65985796	     46.15619953	    109.11295682
      0.84000000	      1.03421989	      1.64363449	     -1.70349344	      0.83267653	      1.14657628	     -0.20263770	      8.30246481	     -0.33426033	      2.08985109	     60.65423761	      1.05861615	    -15.60012045	    -10.12107848	     -6.66862059	     14.01442157	      5.02760552	     -2.67259116	     16.59970867	      0.28971957	      1.70615250	     -6.89016608	     -6.66862059	    -10.74614231	     -3.64387220	     -0.59030381	    -12.35964572	     -5.65195257	    -10.81003255	     42.11097464	    110.94117802	    -11.31557099	     -3.21040362	    -17.42066193	     46.44306676	    109.20330747
      0.85000000	      1.07578839	      1.55082180	     -1.79609007	      0.84265145	      1.14826378	     -0.20303796	      9.67439164	     -0.24598050	      2.33858418	     62.11898534	      1.08418082	    -14.66109315	    -10.96690853	     -6.67595674	     13.20860525	      5.02203326	     -2.44532713	     16.25391529	      0.28368434	      1.97599602	     -7.02183132	     -6.67595674	    -10.81915019	     -3.55188567	     -0.79878232	    -12.38826302	     -5.74436620	    -10.46352813	     42.01719026	    110.99077886	    -11.35037472	     -3.31509755	    -17.22082334	     46.69187594	    109.27480754
      0.86000000	      1.11825600	      1.42776805	     -1.85802626	      0.85252217	      1.14993915	     -0.20347729	     11.01023325	     -0.14245927	      2.51338954	     63.32579811	      1.10524368	    -13.65892533	    -11.80790776	     -6.68234331	     12.39867680	      4.98471079	     -2.21989239	     15.87806694	      0.27712455	      2.20695295	     -7.12545948	     -6.68234331	    -10.89371320	     -3.41031019	     -1.04291020	    -12.41233347	     -5.83731415	    -10.15482097	     41.98568851	    111.03886540	    -11.38230223	     -3.40988356	    -17.03906104	     46.96104201	    109.33778155
      0.87000000	      1.14223755	      1.31220209	     -1.89726455	      0.86231680	      1.15153577	     -0.20395377	     12.33145502	     -0.06175548	      2.63496905	     64.29305202	      1.12212544	    -12.67669985	    -12.65517474	     -6.68874314	     11.59320612	      4.95417596	     -2.02560462	     15.45488126	      0.26973856	      2.41668593	     -7.21000699	     -6.68874314	    -10.95336748	     -3.26555415	     -1.29972317	    -12.44409194	     -5.93039907	     -9.84809147	     42.00249678	    111.09161233	    -11.42488511	     -3.50541986	    -16.86486180	     47.28652309	    109.40043686
      0.88000000	      1.16515239	      1.21851461	     -1.92582854	      0.87202156	      1.15305471	     -0.20444895	     13.61620363	     -0.01519276	      2.72904223	     65.00746779	      1.13459435	    -11.82056177	    -13.48517413	     -6.69599167	     10.78013775	      4.94084443	     -1.88561613	     14.99566278	      0.26172369	      2.59967449	     -7.26244488	     -6.69599167	    -11.02351863	     -3.13960119	     -1.56792325	    -12.47685287	     -6.03058562	     -9.53826887	     42.06266609	    111.15059475	    -11.46943005	     -3.59347860	    -16.70358805	     47.68434612	    109.46433489
      0.89000000	      1.20264994	      1.11319020	     -1.99322085	      0.88169311	      1.15450806	     -0.20486713	     14.83869952	      0.05181159	      2.83981291	     65.46287616	      1.14254273	    -11.11767539	    -14.28748060	     -6.70181133	      9.91567428	      4.89561360	     -1.82850322	     14.47286923	      0.25259922	      2.79204378	     -7.23820216	     -6.70181133	    -11.08008822	     -2.99370078	     -1.80953433	    -12.49950494	     -6.08342433	     -9.32108448	     42.18350185	    111.19877534	    -11.51236496	     -3.69597680	    -16.58784760	     48.06260904	    109.51563029
      0.90000000	      1.24523304	      1.04168890	     -2.05232576	      0.89131820	      1.15586036	     -0.20528034	     15.99507726	      0.08576121	      2.93971435	     65.65487348	      1.14589371	    -10.47123748	    -15.14012503	     -6.70775346	      9.03639164	      4.88482865	     -1.82172573	     13.92040265	      0.24295686	      2.99091113	     -7.14431773	     -6.70775346	    -11.16011528	     -2.90579732	     -2.04383836	    -12.55782536	     -6.13828768	     -9.13584612	     42.34808126	    111.24599325	    -11.54134433	     -3.78735204	    -16.46978520	     48.51787459	    109.56981760
      0.91000000	      1.34629021	      0.99110479	     -2.07628251	      0.90088107	      1.15714516	     -0.20577027	     17.02918307	      0.08048286	      2.99236765	     65.60746840	      1.14506634	     -9.92162971	    -16.10579517	     -6.71785341	      8.09171639	      4.90299797	     -1.87144109	     13.34389328	      0.23289487	      3.21330904	     -6.94911595	     -6.71785341	    -11.35585141	     -2.83223722	     -2.28944335	    -12.63018180	     -6.20579908	     -8.93534605	     42.56749100	    111.30438174	    -11.59777775	     -3.88238811	    -16.35625476	     49.12358525	    109.62986354
      0.92000000	      1.33879016	      0.86673561	     -2.12629185	      0.91044994	      1.15823270	     -0.20619007	     18.09899586	      0.18428987	      3.08037314	     65.27989799	      1.13934916	     -9.35836891	    -16.76909430	     -6.72199678	      7.24917273	      4.82389172	     -1.99511432	     12.74205636	      0.22239084	      3.42715628	     -6.81121584	     -6.72199678	    -11.36610053	     -2.64781520	     -2.51657267	    -12.68760978	     -6.23152528	     -8.90803509	     42.74383709	    111.32401653	    -11.60235875	     -3.96410568	    -16.28215263	     49.45359915	    109.66310452
      0.93000000	      1.36017428	      0.77680410	     -2.14305046	      0.91992362	      1.15920841	     -0.20661850	     19.06687260	      0.24736318	      3.13663055	     64.70840715	      1.12937476	     -8.68999510	    -17.51748325	     -6.72644368	      6.38447952	      4.78790235	     -2.06577536	     12.14565926	      0.21198174	      3.65445431	     -6.58253551	     -6.72644368	    -11.43860711	     -2.52302506	     -2.70553474	    -12.76207821	     -6.24824524	     -8.89851204	     42.98186395	    111.34225877	    -11.56132713	     -4.07285440	    -16.17832757	     49.91149573	    109.70816291
      0.94000000	      1.56125131	      0.68986086	     -2.11740967	      0.92938964	      1.16029543	     -0.20705534	     19.73967466	      0.29015418	      3.14778690	     63.85673522	      1.11451028	     -8.02419501	    -18.34891397	     -6.73768156	      5.32604972	      4.75747691	     -2.10919194	     11.55694735	      0.20170678	      4.00932936	     -6.10126841	     -6.73768156	    -11.75419385	     -2.39949446	     -2.89592009	    -12.85284476	     -6.23285989	     -8.96598063	     43.36336831	    111.35444268	    -11.53368083	     -4.22589822	    -16.01134871	     50.58297525	    109.76315047
      0.95000000	      1.58443786	      0.55756534	     -2.08275555	      0.93879621	      1.16105248	     -0.20747568	     20.53363677	      0.41609630	      3.20221950	     62.77335974	      1.09560181	     -7.37964184	    -18.87228904	     -6.74712604	      4.48965256	      4.66548976	     -2.16517767	     11.01335181	      0.19221925	      4.31388609	     -5.73396433	     -6.74712604	    -11.84428256	     -2.21759036	     -3.07643531	    -12.93490805	     -6.19582519	     -9.09222290	     43.61238839	    111.34376763	    -11.44875429	     -4.34025753	    -15.86424175	     50.99549115	    109.79544359
      0.96000000	      1.53419197	      0.43506215	     -2.05377955	      0.94811243	      1.16158845	     -0.20785555	     21.34432159	      0.52927208	      3.25138375	     61.47188766	      1.07288684	     -6.75909676	    -19.23392211	     -6.75356528	      3.74755355	      4.58307893	     -2.18264183	     10.49020875	      0.18308868	      4.58228653	     -5.45123690	     -6.75356528	    -11.83917465	     -2.02543586	     -3.24192868	    -12.96467376	     -6.16966175	     -9.22870660	     43.83663801	    111.32719662	    -11.35197808	     -4.49848432	    -15.71622839	     51.35401815	    109.82934110
      0.97000000	      1.57761563	      0.32524579	     -1.95682414	      0.95748085	      1.16215407	     -0.20829810	     21.94162464	      0.61658004	      3.27844563	     59.91465028	      1.04570792	     -6.08158440	    -19.49448388	     -6.76345134	      2.91030170	      4.51396614	     -2.12075985	      9.99444395	      0.17443595	      4.95300487	     -5.04735081	     -6.76345134	    -11.96475629	     -1.83331514	     -3.39555624	    -13.04904163	     -6.08539926	     -9.46007228	     44.09097546	    111.28478872	    -11.22812373	     -4.67716140	    -15.45801685	     51.77468187	    109.87047108
